<?xml version="1.0" encoding="UTF-8" standalone="no"?>
<!-- Generator: Adobe Illustrator 19.0.0, SVG Export Plug-In . SVG Version: 6.00 Build 0)  -->

<svg
   xmlns:dc="http://purl.org/dc/elements/1.1/"
   xmlns:cc="http://creativecommons.org/ns#"
   xmlns:rdf="http://www.w3.org/1999/02/22-rdf-syntax-ns#"
   xmlns:svg="http://www.w3.org/2000/svg"
   xmlns="http://www.w3.org/2000/svg"
   xmlns:sodipodi="http://sodipodi.sourceforge.net/DTD/sodipodi-0.dtd"
   xmlns:inkscape="http://www.inkscape.org/namespaces/inkscape"
   version="1.1"
   id="Capa_1"
   x="0px"
   y="0px"
   viewBox="0 0 56 56"
   style="enable-background:new 0 0 56 56;"
   xml:space="preserve"
   inkscape:version="0.48.5 r10040"
   width="100%"
   height="100%"
   sodipodi:docname="calculator2.svg"><metadata
   id="metadata63"><rdf:RDF><cc:Work
       rdf:about=""><dc:format>image/svg+xml</dc:format><dc:type
         rdf:resource="http://purl.org/dc/dcmitype/StillImage" /></cc:Work></rdf:RDF></metadata><defs
   id="defs61" /><sodipodi:namedview
   pagecolor="#ffffff"
   bordercolor="#666666"
   borderopacity="1"
   objecttolerance="10"
   gridtolerance="10"
   guidetolerance="10"
   inkscape:pageopacity="0"
   inkscape:pageshadow="2"
   inkscape:window-width="1920"
   inkscape:window-height="1018"
   id="namedview59"
   showgrid="false"
   inkscape:zoom="6.2968901"
   inkscape:cx="-7.8157324"
   inkscape:cy="12.398784"
   inkscape:window-x="-8"
   inkscape:window-y="-8"
   inkscape:window-maximized="1"
   inkscape:current-layer="Capa_1" />




<path
   style="fill:#448aff;fill-opacity:1;stroke:#448aff;stroke-width:0.88442481;stroke-opacity:1"
   d="M 36.632503,44.853712 26.332112,40.159554 c -0.473817,-0.215931 -0.683507,-0.774871 -0.467186,-1.249546 0.216324,-0.474676 0.775729,-0.683116 1.249546,-0.467186 l 10.30039,4.694159 c 0.473818,0.215931 0.683509,0.774868 0.467186,1.249545 -0.216322,0.474676 -0.775727,0.683116 -1.249545,0.467186 z"
   id="path11"
   inkscape:connector-curvature="0" />
<path
   style="fill:#448aff;fill-opacity:1;stroke:#448aff;stroke-width:0.88442481;stroke-opacity:1"
   d="M 38.979582,39.703517 28.679193,35.009358 c -0.473819,-0.215931 -0.683509,-0.774868 -0.467186,-1.249544 0.216322,-0.474676 0.775727,-0.683118 1.249545,-0.467187 l 10.30039,4.694158 c 0.473817,0.215932 0.683507,0.77487 0.467186,1.249546 -0.216324,0.474677 -0.775728,0.683117 -1.249546,0.467186 z"
   id="path13"
   inkscape:connector-curvature="0" />
<path
   style="fill:#ff9800;fill-opacity:1;stroke:#ff9800;stroke-width:0.88442481;stroke-opacity:1"
   d="m 15.488531,32.107939 c -0.219741,-0.100141 -0.401148,-0.284401 -0.492248,-0.528067 -0.18267,-0.488571 0.06456,-1.031058 0.55313,-1.213728 l 6.247727,-2.335929 c 0.488572,-0.182671 1.031058,0.06456 1.213728,0.553127 0.18267,0.488572 -0.06456,1.031059 -0.553128,1.21373 l -6.247727,2.335929 c -0.243662,0.0911 -0.50174,0.07508 -0.721482,-0.02506 z"
   id="path15"
   inkscape:connector-curvature="0" />
<path
   style="fill:#ff9800;fill-opacity:1;stroke:#ff9800;stroke-width:0.88442481;stroke-opacity:1"
   d="M 9.2408032,34.443869 C 9.0210625,34.343726 8.8396544,34.159468 8.748554,33.915803 8.5658847,33.42723 8.8131126,32.884743 9.3016836,32.702074 l 6.2477294,-2.33593 c 0.488572,-0.182669 1.031057,0.06456 1.213728,0.553129 0.18267,0.488572 -0.06456,1.031058 -0.553128,1.213728 l -6.2477286,2.33593 c -0.2436617,0.0911 -0.5017393,0.07508 -0.7214803,-0.02506 z"
   id="path17"
   inkscape:connector-curvature="0" />
<path
   style="fill:#ff9800;fill-opacity:1;stroke:#ff9800;stroke-width:0.88442481;stroke-opacity:1"
   d="m 17.824461,38.355666 c -0.219741,-0.100141 -0.401149,-0.2844 -0.492248,-0.528064 l -2.33593,-6.24773 c -0.18267,-0.488571 0.06456,-1.031058 0.55313,-1.213728 0.488572,-0.182669 1.031057,0.06456 1.213728,0.553129 L 19.09907,37.167 c 0.18267,0.488572 -0.06456,1.03106 -0.553129,1.213731 -0.24366,0.0911 -0.501737,0.07508 -0.721479,-0.02506 z"
   id="path19"
   inkscape:connector-curvature="0" />
<path
   style="fill:#ff9800;fill-opacity:1;stroke:#ff9800;stroke-width:0.88442481;stroke-opacity:1"
   d="M 15.488531,32.107939 C 15.26879,32.007798 15.087383,31.823538 14.996283,31.579872 l -2.33593,-6.247728 c -0.18267,-0.488571 0.06456,-1.031058 0.553128,-1.213728 0.488573,-0.182669 1.03106,0.06456 1.213731,0.553128 l 2.335929,6.247729 c 0.18267,0.488572 -0.06456,1.031058 -0.553128,1.213728 -0.243662,0.0911 -0.50174,0.07508 -0.721482,-0.02506 z"
   id="path21"
   inkscape:connector-curvature="0" />
<path
   style="fill:#f44336;fill-opacity:1;stroke:#f44336;stroke-width:0.88442481;stroke-opacity:1"
   d="M 28.462323,17.287701 18.161934,12.593543 c -0.473819,-0.215931 -0.683509,-0.774867 -0.467186,-1.249545 0.216323,-0.474677 0.775727,-0.683117 1.249545,-0.467186 l 10.30039,4.694158 c 0.473818,0.215931 0.683509,0.774869 0.467185,1.249546 -0.216322,0.474676 -0.775726,0.683117 -1.249545,0.467185 z"
   id="path23"
   inkscape:connector-curvature="0" />
<path
   style="fill:#f44336;fill-opacity:1;stroke:#f44336;stroke-width:0.88442481;stroke-opacity:1"
   d="m 20.96505,20.090818 c -0.473819,-0.215931 -0.683509,-0.77487 -0.467187,-1.249545 L 25.192021,8.5408825 c 0.216322,-0.4746759 0.775728,-0.683117 1.249545,-0.4671859 0.473818,0.2159321 0.683509,0.7748695 0.467186,1.2495453 L 22.214595,19.623632 c -0.216322,0.474676 -0.775727,0.683117 -1.249545,0.467186 z"
   id="path25"
   inkscape:connector-curvature="0" />
<path
   style="fill:#9c27b0;fill-opacity:1;stroke:#9c27b0;stroke-width:0.88442481;stroke-opacity:1"
   d="m 45.629639,25.111299 -10.30039,-4.694158 c -0.473818,-0.215932 -0.683508,-0.77487 -0.467186,-1.249546 0.216323,-0.474678 0.775728,-0.683117 1.249546,-0.467186 l 10.30039,4.694158 c 0.473817,0.215931 0.683508,0.774868 0.467185,1.249546 -0.216322,0.474677 -0.775727,0.683116 -1.249545,0.467186 z"
   id="path27"
   inkscape:connector-curvature="0" />
<g
   id="g29">
</g>
<g
   id="g31">
</g>
<g
   id="g33">
</g>
<g
   id="g35">
</g>
<g
   id="g37">
</g>
<g
   id="g39">
</g>
<g
   id="g41">
</g>
<g
   id="g43">
</g>
<g
   id="g45">
</g>
<g
   id="g47">
</g>
<g
   id="g49">
</g>
<g
   id="g51">
</g>
<g
   id="g53">
</g>
<g
   id="g55">
</g>
<g
   id="g57">
</g>
</svg>