<?xml version="1.0" encoding="UTF-8" standalone="no"?>
<!-- Generator: Adobe Illustrator 19.0.0, SVG Export Plug-In . SVG Version: 6.00 Build 0)  -->

<svg
   xmlns:dc="http://purl.org/dc/elements/1.1/"
   xmlns:cc="http://creativecommons.org/ns#"
   xmlns:rdf="http://www.w3.org/1999/02/22-rdf-syntax-ns#"
   xmlns:svg="http://www.w3.org/2000/svg"
   xmlns="http://www.w3.org/2000/svg"
   xmlns:sodipodi="http://sodipodi.sourceforge.net/DTD/sodipodi-0.dtd"
   xmlns:inkscape="http://www.inkscape.org/namespaces/inkscape"
   version="1.1"
   id="Layer_1"
   x="0px"
   y="0px"
   viewBox="0 0 508 508"
   style="enable-background:new 0 0 508 508;"
   xml:space="preserve"
   inkscape:version="0.48.5 r10040"
   width="100%"
   height="100%"
   sodipodi:docname="calculator.svg"><metadata
   id="metadata65"><rdf:RDF><cc:Work
       rdf:about=""><dc:format>image/svg+xml</dc:format><dc:type
         rdf:resource="http://purl.org/dc/dcmitype/StillImage" /></cc:Work></rdf:RDF></metadata><defs
   id="defs63">
	
	
	
	
</defs><sodipodi:namedview
   pagecolor="#ffffff"
   bordercolor="#666666"
   borderopacity="1"
   objecttolerance="10"
   gridtolerance="10"
   guidetolerance="10"
   inkscape:pageopacity="0"
   inkscape:pageshadow="2"
   inkscape:window-width="1920"
   inkscape:window-height="1018"
   id="namedview61"
   showgrid="false"
   inkscape:zoom="0.39560778"
   inkscape:cx="596.0107"
   inkscape:cy="159.62515"
   inkscape:window-x="-8"
   inkscape:window-y="-8"
   inkscape:window-maximized="1"
   inkscape:current-layer="Layer_1" />
<circle
   sodipodi:ry="254"
   sodipodi:rx="254"
   sodipodi:cy="254"
   sodipodi:cx="254"
   style="fill:#ffd05b"
   cx="254"
   cy="254"
   r="254"
   id="circle3-1-0-8"
   transform="matrix(0.51851886,0,0,0.51851886,-431.85659,-505.87943)" /><circle
   sodipodi:ry="254"
   sodipodi:rx="254"
   sodipodi:cy="254"
   sodipodi:cx="254"
   style="fill:#ffd05b"
   cx="254"
   cy="254"
   r="254"
   id="circle3-1-0"
   transform="matrix(0.51851886,0,0,0.51851886,-117.85032,-504.30874)" /><circle
   sodipodi:ry="254"
   sodipodi:rx="254"
   sodipodi:cy="254"
   sodipodi:cx="254"
   style="fill:#ffd05b"
   cx="254"
   cy="254"
   r="254"
   id="circle3-1-7"
   transform="matrix(0.51851886,0,0,0.51851886,646.06316,-503.38201)" /><circle
   style="fill:#FFD05B;"
   cx="254"
   cy="254"
   r="254"
   id="circle3" />
<path
   style="fill:#FFFFFF;"
   d="M231.6,246.4H114c-8.4,0-14.8-6.8-14.8-14.8V114c0-8.4,6.8-14.8,14.8-14.8h117.6  c8.4,0,14.8,6.8,14.8,14.8v117.6C246.4,239.6,239.6,246.4,231.6,246.4z"
   id="path5" />
<rect
   x="114.8"
   y="114.8"
   style="fill:#84DBFF;"
   width="115.6"
   height="115.6"
   id="rect7" />
<path
   style="fill:#FFFFFF;"
   d="M394,246.4H276.4c-8.4,0-14.8-6.8-14.8-14.8V114c0-8.4,6.8-14.8,14.8-14.8H394  c8.4,0,14.8,6.8,14.8,14.8v117.6C409.2,239.6,402.4,246.4,394,246.4z"
   id="path9" />
<rect
   x="277.6"
   y="114.8"
   style="fill:#FF7058;"
   width="115.6"
   height="115.6"
   id="rect11" />
<path
   style="fill:#FFFFFF;"
   d="M231.6,409.2H114c-8.4,0-14.8-6.8-14.8-14.8v-118c0-8.4,6.8-14.8,14.8-14.8h117.6  c8.4,0,14.8,6.8,14.8,14.8V394C246.4,402.4,239.6,409.2,231.6,409.2z"
   id="path13" />
<rect
   x="114.8"
   y="277.6"
   style="fill:#4CDBC4;"
   width="115.6"
   height="115.6"
   id="rect15" />
<path
   style="fill:#FFFFFF;"
   d="M394,409.2H276.4c-8.4,0-14.8-6.8-14.8-14.8v-118c0-8.4,6.8-14.8,14.8-14.8H394  c8.4,0,14.8,6.8,14.8,14.8V394C409.2,402.4,402.4,409.2,394,409.2z"
   id="path17" />
<rect
   x="277.6"
   y="277.6"
   style="fill:#324A5E;"
   width="115.6"
   height="115.6"
   id="rect19" />
<path
   inkscape:connector-curvature="0"
   id="path23"
   d="M 326,205.2 V 180.8 H 302.4 V 164 H 326 v -24.4 h 18.8 V 164 h 23.6 v 16.8 h -23.6 v 24.4 H 326 z"
   style="fill:#ffffff" /><path
   inkscape:connector-curvature="0"
   id="path25"
   d="M 142.8,189.2 160,172 l -16.8,-16.8 11.6,-11.6 16.8,16.8 17.2,-17.2 13.2,13.2 -17.2,17.2 17.2,16.4 -12,12 -16.8,-16.8 -17.2,17.2 -13.2,-13.2 z"
   style="fill:#ffffff" /><path
   inkscape:connector-curvature="0"
   id="path27"
   d="m 302.4,310 h 66 v 16.8 h -66 V 310 z m 0,34 h 66 v 16.8 h -66 V 344 z"
   style="fill:#ffffff" /><rect
   id="rect29"
   height="16.799999"
   width="66"
   style="fill:#ffffff"
   y="326.79999"
   x="139.60001" />
<g
   id="g31">
</g>
<g
   id="g33">
</g>
<g
   id="g35">
</g>
<g
   id="g37">
</g>
<g
   id="g39">
</g>
<g
   id="g41">
</g>
<g
   id="g43">
</g>
<g
   id="g45">
</g>
<g
   id="g47">
</g>
<g
   id="g49">
</g>
<g
   id="g51">
</g>
<g
   id="g53">
</g>
<g
   id="g55">
</g>
<g
   id="g57">
</g>
<g
   id="g59">
</g>
<circle
   sodipodi:ry="254"
   sodipodi:rx="254"
   sodipodi:cy="254"
   sodipodi:cx="254"
   style="fill:#ffd05b"
   cx="254"
   cy="254"
   r="254"
   id="circle3-1"
   transform="matrix(0.51851886,0,0,0.51851886,258.60899,-504.55745)" /><path
   inkscape:connector-curvature="0"
   style="fill:#ffffff"
   d="m 448.93138,-299.64972 h -117.6 c -8.4,0 -14.8,-6.8 -14.8,-14.8 v -117.6 c 0,-8.4 6.8,-14.8 14.8,-14.8 h 117.6 c 8.4,0 14.8,6.8 14.8,14.8 v 117.6 c 0,8 -6.8,14.8 -14.8,14.8 z"
   id="path5-4" /><rect
   x="332.13138"
   y="-431.24973"
   style="fill:#84dbff"
   width="115.6"
   height="115.6"
   id="rect7-2" /><path
   inkscape:connector-curvature="0"
   id="path25-7"
   d="m 360.13138,-356.84972 17.2,-17.2 -16.8,-16.8 11.6,-11.6 16.8,16.8 17.2,-17.2 13.2,13.2 -17.2,17.2 17.2,16.4 -12,12 -16.8,-16.8 -17.2,17.2 -13.2,-13.2 z"
   style="fill:#ffffff" /><path
   inkscape:connector-curvature="0"
   style="fill:#ffffff"
   d="m 839.20251,-296.79029 h -117.6 c -8.4,0 -14.8,-6.8 -14.8,-14.8 v -117.6 c 0,-8.4 6.8,-14.8 14.8,-14.8 h 117.6 c 8.4,0 14.8,6.8 14.8,14.8 v 117.6 c 0.4,8 -6.4,14.8 -14.8,14.8 z"
   id="path9-8" /><rect
   x="722.80249"
   y="-428.39029"
   style="fill:#ff7058"
   width="115.6"
   height="115.6"
   id="rect11-9" /><path
   inkscape:connector-curvature="0"
   id="path23-2"
   d="m 771.20251,-337.99029 v -24.4 h -23.6 v -16.8 h 23.6 v -24.4 h 18.8 v 24.4 h 23.6 v 16.8 h -23.6 v 24.4 h -18.8 z"
   style="fill:#ffffff" /><path
   inkscape:connector-curvature="0"
   style="fill:#ffffff"
   d="m 73.082769,-300.16098 h -117.6 c -8.4,0 -14.8,-6.8 -14.8,-14.8 v -118 c 0,-8.4 6.8,-14.8 14.8,-14.8 h 117.6 c 8.4,0 14.8,6.8 14.8,14.8 v 117.6 c 0,8.4 -6.8,15.2 -14.8,15.2 z"
   id="path13-3" /><rect
   x="-43.717228"
   y="-431.76099"
   style="fill:#4cdbc4"
   width="115.6"
   height="115.6"
   id="rect15-3" /><rect
   id="rect29-7"
   height="16.799999"
   width="66"
   style="fill:#ffffff"
   y="-382.561"
   x="-18.917225" /><path
   inkscape:connector-curvature="0"
   style="fill:#ffffff"
   d="m -241.14654,-300.16098 h -117.6 c -8.4,0 -14.8,-6.8 -14.8,-14.8 v -118.00001 c 0,-8.4 6.8,-14.8 14.8,-14.8 h 117.6 c 8.4,0 14.8,6.8 14.8,14.8 v 117.60001 c 0.4,8.4 -6.4,15.2 -14.8,15.2 z"
   id="path17-8" /><rect
   x="-357.54657"
   y="-431.76099"
   style="fill:#324a5e"
   width="115.6"
   height="115.6"
   id="rect19-8" /><path
   inkscape:connector-curvature="0"
   id="path27-1"
   d="m -332.74654,-399.36099 h 66 v 16.8 h -66 v -16.8 z m 0,34 h 66 v 16.8 h -66 v -16.8 z"
   style="fill:#ffffff" /><circle
   sodipodi:ry="254"
   sodipodi:rx="254"
   sodipodi:cy="254"
   sodipodi:cx="254"
   style="fill:#ffd05b"
   cx="254"
   cy="254"
   r="254"
   id="circle3-1-0-8-0"
   transform="matrix(0.51851886,0,0,0.51851886,1995.2632,349.27403)" /><circle
   sodipodi:ry="254"
   sodipodi:rx="254"
   sodipodi:cy="254"
   sodipodi:cx="254"
   style="fill:#ffd05b"
   cx="254"
   cy="254"
   r="254"
   id="circle3-1-0-2"
   transform="matrix(0.51851886,0,0,0.51851886,1721.9272,353.89444)" /><circle
   sodipodi:ry="254"
   sodipodi:rx="254"
   sodipodi:cy="254"
   sodipodi:cx="254"
   style="fill:#ffd05b"
   cx="254"
   cy="254"
   r="254"
   id="circle3-1-7-8"
   transform="matrix(0.51851886,0,0,0.51851886,1722.7085,82.136218)" /><circle
   sodipodi:ry="254"
   sodipodi:rx="254"
   sodipodi:cy="254"
   sodipodi:cx="254"
   style="fill:#ffd05b"
   cx="254"
   cy="254"
   r="254"
   id="circle3-1-9"
   transform="matrix(0.51851886,0,0,0.51851886,1992.3424,75.286753)" /><path
   inkscape:connector-curvature="0"
   style="fill:#ffffff"
   d="m 2182.6648,280.19449 h -117.6 c -8.4,0 -14.8,-6.8 -14.8,-14.8 v -117.6 c 0,-8.4 6.8,-14.8 14.8,-14.8 h 117.6 c 8.4,0 14.8,6.8 14.8,14.8 v 117.6 c 0,8 -6.8,14.8 -14.8,14.8 z"
   id="path5-4-8" /><rect
   x="2065.8647"
   y="148.59448"
   style="fill:#84dbff"
   width="115.6"
   height="115.6"
   id="rect7-2-9" /><path
   inkscape:connector-curvature="0"
   id="path25-7-9"
   d="m 2093.8648,222.99449 17.2,-17.2 -16.8,-16.8 11.6,-11.6 16.8,16.8 17.2,-17.2 13.2,13.2 -17.2,17.2 17.2,16.4 -12,12 -16.8,-16.8 -17.2,17.2 -13.2,-13.2 z"
   style="fill:#ffffff" /><path
   inkscape:connector-curvature="0"
   style="fill:#ffffff"
   d="m 1915.8478,288.72794 h -117.6 c -8.4,0 -14.8,-6.8 -14.8,-14.8 v -117.6 c 0,-8.4 6.8,-14.8 14.8,-14.8 h 117.6 c 8.4,0 14.8,6.8 14.8,14.8 v 117.6 c 0.4,8 -6.4,14.8 -14.8,14.8 z"
   id="path9-8-9" /><rect
   x="1799.4478"
   y="157.12794"
   style="fill:#ff7058"
   width="115.6"
   height="115.6"
   id="rect11-9-4" /><path
   inkscape:connector-curvature="0"
   id="path23-2-2"
   d="m 1847.8478,247.52794 v -24.4 h -23.6 v -16.8 h 23.6 v -24.4 h 18.8 v 24.4 h 23.6 v 16.8 h -23.6 v 24.4 h -18.8 z"
   style="fill:#ffffff" /><path
   inkscape:connector-curvature="0"
   style="fill:#ffffff"
   d="m 1912.8603,558.04221 h -117.6 c -8.4,0 -14.8,-6.8 -14.8,-14.8 v -118 c 0,-8.4 6.8,-14.8 14.8,-14.8 h 117.6 c 8.4,0 14.8,6.8 14.8,14.8 v 117.6 c 0,8.4 -6.8,15.2 -14.8,15.2 z"
   id="path13-3-0" /><rect
   x="1796.0603"
   y="426.4422"
   style="fill:#4cdbc4"
   width="115.6"
   height="115.6"
   id="rect15-3-8" /><rect
   id="rect29-7-7"
   height="16.799999"
   width="66"
   style="fill:#ffffff"
   y="475.64218"
   x="1820.8604" /><path
   inkscape:connector-curvature="0"
   style="fill:#ffffff"
   d="m 2185.9733,554.99248 h -117.6 c -8.4,0 -14.8,-6.8 -14.8,-14.8 V 422.19247 c 0,-8.4 6.8,-14.8 14.8,-14.8 h 117.6 c 8.4,0 14.8,6.8 14.8,14.8 v 117.60001 c 0.4,8.4 -6.4,15.2 -14.8,15.2 z"
   id="path17-8-8" /><rect
   x="2069.5732"
   y="423.39249"
   style="fill:#324a5e"
   width="115.6"
   height="115.6"
   id="rect19-8-7" /><path
   inkscape:connector-curvature="0"
   id="path27-1-3"
   d="m 2094.3733,455.79247 h 66 v 16.8 h -66 v -16.8 z m 0,34 h 66 v 16.8 h -66 v -16.8 z"
   style="fill:#ffffff" /></svg>