<?xml version="1.0" encoding="UTF-8" standalone="no"?>
<!-- Generator: Adobe Illustrator 19.0.0, SVG Export Plug-In . SVG Version: 6.00 Build 0)  -->

<svg
   xmlns:dc="http://purl.org/dc/elements/1.1/"
   xmlns:cc="http://creativecommons.org/ns#"
   xmlns:rdf="http://www.w3.org/1999/02/22-rdf-syntax-ns#"
   xmlns:svg="http://www.w3.org/2000/svg"
   xmlns="http://www.w3.org/2000/svg"
   xmlns:sodipodi="http://sodipodi.sourceforge.net/DTD/sodipodi-0.dtd"
   xmlns:inkscape="http://www.inkscape.org/namespaces/inkscape"
   version="1.1"
   id="Capa_1"
   x="0px"
   y="0px"
   viewBox="0 0 56 56"
   style="enable-background:new 0 0 56 56;"
   xml:space="preserve"
   inkscape:version="0.48.5 r10040"
   width="100%"
   height="100%"
   sodipodi:docname="calculator2.svg"><metadata
   id="metadata63"><rdf:RDF><cc:Work
       rdf:about=""><dc:format>image/svg+xml</dc:format><dc:type
         rdf:resource="http://purl.org/dc/dcmitype/StillImage" /></cc:Work></rdf:RDF></metadata><defs
   id="defs61" /><sodipodi:namedview
   pagecolor="#ffffff"
   bordercolor="#666666"
   borderopacity="1"
   objecttolerance="10"
   gridtolerance="10"
   guidetolerance="10"
   inkscape:pageopacity="0"
   inkscape:pageshadow="2"
   inkscape:window-width="1920"
   inkscape:window-height="1018"
   id="namedview59"
   showgrid="false"
   inkscape:zoom="8.663583"
   inkscape:cx="31.160936"
   inkscape:cy="9.7864717"
   inkscape:window-x="-8"
   inkscape:window-y="-8"
   inkscape:window-maximized="1"
   inkscape:current-layer="Capa_1" />




<path
   style="fill:#448aff;fill-opacity:1;stroke:#448aff;stroke-opacity:1"
   d="M 37.741571,46.794253 26.095143,41.48667 c -0.535735,-0.244149 -0.772828,-0.876128 -0.528237,-1.412834 0.244591,-0.536706 0.877099,-0.772386 1.412834,-0.528237 l 11.646428,5.307583 c 0.535735,0.244148 0.772828,0.876128 0.528237,1.412834 -0.244591,0.536706 -0.877099,0.772385 -1.412834,0.528237 z"
   id="path11"
   inkscape:connector-curvature="0" />
<path
   style="fill:#448aff;fill-opacity:1;stroke:#448aff;stroke-opacity:1"
   d="M 40.395362,40.971039 28.748935,35.663456 c -0.535736,-0.244148 -0.772828,-0.876128 -0.528237,-1.412834 0.244591,-0.536706 0.877099,-0.772385 1.412834,-0.528237 l 11.646427,5.307583 c 0.535736,0.244149 0.772829,0.876128 0.528238,1.412834 -0.244592,0.536706 -0.877099,0.772386 -1.412835,0.528237 z"
   id="path13"
   inkscape:connector-curvature="0" />
<path
   style="fill:#448aff;fill-opacity:1;stroke:#448aff;stroke-opacity:1"
   d="m 13.834541,32.382883 c -0.248457,-0.113228 -0.453569,-0.321569 -0.556574,-0.597072 -0.206542,-0.552418 0.07299,-1.165797 0.62541,-1.372337 l 7.06417,-2.641185 c 0.552418,-0.206541 1.165797,0.07299 1.372337,0.62541 0.206541,0.552418 -0.07299,1.165796 -0.62541,1.372337 l -7.06417,2.641185 c -0.275503,0.103007 -0.567305,0.08489 -0.815763,-0.02834 z"
   id="path15"
   inkscape:connector-curvature="0" />
<path
   style="fill:#448aff;fill-opacity:1;stroke:#448aff;stroke-opacity:1"
   d="M 6.7703708,35.024069 C 6.5219141,34.91084 6.3168018,34.702499 6.2137951,34.426997 6.0072548,33.874578 6.2867875,33.261199 6.8392056,33.054659 l 7.0641714,-2.641185 c 0.552418,-0.206541 1.165796,0.07299 1.372337,0.62541 0.20654,0.552418 -0.07299,1.165797 -0.62541,1.372337 l -7.0641709,2.641186 c -0.2755025,0.103006 -0.5673056,0.08489 -0.8157623,-0.02834 z"
   id="path17"
   inkscape:connector-curvature="0" />
<path
   style="fill:#448aff;fill-opacity:1;stroke:#448aff;stroke-opacity:1"
   d="m 16.475726,39.447054 c -0.248457,-0.113228 -0.453569,-0.32157 -0.556575,-0.597071 l -2.641184,-7.064172 c -0.206542,-0.552418 0.07299,-1.165797 0.62541,-1.372337 0.552418,-0.206541 1.165796,0.07299 1.372337,0.62541 l 2.641185,7.064171 c 0.206541,0.552418 -0.07299,1.165796 -0.625411,1.372338 -0.275502,0.103005 -0.567304,0.08489 -0.815762,-0.02834 z"
   id="path19"
   inkscape:connector-curvature="0" />
<path
   style="fill:#448aff;fill-opacity:1;stroke:#448aff;stroke-opacity:1"
   d="M 13.834541,32.382883 C 13.586084,32.269655 13.380972,32.061314 13.277967,31.785811 L 10.636781,24.72164 c -0.206541,-0.552418 0.07299,-1.165796 0.62541,-1.372337 0.552419,-0.20654 1.165797,0.07299 1.372338,0.62541 l 2.641185,7.064171 c 0.20654,0.552418 -0.07299,1.165797 -0.62541,1.372337 -0.275503,0.103007 -0.567305,0.08489 -0.815763,-0.02834 z"
   id="path21"
   inkscape:connector-curvature="0" />
<path
   style="fill:#448aff;fill-opacity:1;stroke:#448aff;stroke-opacity:1"
   d="M 28.503726,15.625962 16.857299,10.31838 C 16.321563,10.074231 16.08447,9.442253 16.329062,8.905546 16.573653,8.3688399 17.20616,8.13316 17.741896,8.3773089 l 11.646427,5.3075821 c 0.535736,0.244149 0.772828,0.876128 0.528237,1.412834 -0.244592,0.536707 -0.877098,0.772386 -1.412834,0.528237 z"
   id="path23"
   inkscape:connector-curvature="0" />
<path
   style="fill:#448aff;fill-opacity:1;stroke:#448aff;stroke-opacity:1"
   d="M 20.026721,18.795385 C 19.490985,18.551237 19.253892,17.919257 19.498484,17.382551 L 24.806066,5.7361242 c 0.244591,-0.5367061 0.877099,-0.7723856 1.412834,-0.528237 0.535736,0.244149 0.772828,0.876128 0.528237,1.4128341 L 21.439555,18.267148 c -0.244591,0.536706 -0.877098,0.772386 -1.412834,0.528237 z"
   id="path25"
   inkscape:connector-curvature="0" />
<path
   style="fill:#448aff;fill-opacity:1;stroke:#448aff;stroke-opacity:1"
   d="M 47.914438,24.471934 36.26801,19.164351 c -0.535735,-0.244149 -0.772828,-0.876127 -0.528237,-1.412834 0.244591,-0.536707 0.877099,-0.772386 1.412834,-0.528238 l 11.646428,5.307583 c 0.535735,0.244149 0.772828,0.876128 0.528237,1.412835 -0.244591,0.536707 -0.877099,0.772385 -1.412834,0.528237 z"
   id="path27"
   inkscape:connector-curvature="0" />
<g
   id="g29">
</g>
<g
   id="g31">
</g>
<g
   id="g33">
</g>
<g
   id="g35">
</g>
<g
   id="g37">
</g>
<g
   id="g39">
</g>
<g
   id="g41">
</g>
<g
   id="g43">
</g>
<g
   id="g45">
</g>
<g
   id="g47">
</g>
<g
   id="g49">
</g>
<g
   id="g51">
</g>
<g
   id="g53">
</g>
<g
   id="g55">
</g>
<g
   id="g57">
</g>
</svg>