<?xml version="1.0" encoding="UTF-8" standalone="no"?>
<!-- Created with Inkscape (http://www.inkscape.org/) -->

<svg
   xmlns:dc="http://purl.org/dc/elements/1.1/"
   xmlns:cc="http://creativecommons.org/ns#"
   xmlns:rdf="http://www.w3.org/1999/02/22-rdf-syntax-ns#"
   xmlns:svg="http://www.w3.org/2000/svg"
   xmlns="http://www.w3.org/2000/svg"
   xmlns:sodipodi="http://sodipodi.sourceforge.net/DTD/sodipodi-0.dtd"
   xmlns:inkscape="http://www.inkscape.org/namespaces/inkscape"
   width="74.339478mm"
   height="74.339478mm"
   viewBox="0 0 263.4076 263.4076"
   id="svg4204"
   version="1.1"
   inkscape:version="0.91 r13725"
   sodipodi:docname="circle2.svg">
  <defs
     id="defs4206" />
  <sodipodi:namedview
     id="base"
     pagecolor="#ffffff"
     bordercolor="#666666"
     borderopacity="1.0"
     inkscape:pageopacity="0.0"
     inkscape:pageshadow="2"
     inkscape:zoom="0.49497475"
     inkscape:cx="128.28803"
     inkscape:cy="80.724107"
     inkscape:document-units="px"
     inkscape:current-layer="layer1"
     showgrid="false"
     fit-margin-top="0"
     fit-margin-left="0"
     fit-margin-right="0"
     fit-margin-bottom="0"
     inkscape:window-width="1280"
     inkscape:window-height="962"
     inkscape:window-x="-8"
     inkscape:window-y="-8"
     inkscape:window-maximized="1" />
  <metadata
     id="metadata4209">
    <rdf:RDF>
      <cc:Work
         rdf:about="">
        <dc:format>image/svg+xml</dc:format>
        <dc:type
           rdf:resource="http://purl.org/dc/dcmitype/StillImage" />
        <dc:title></dc:title>
      </cc:Work>
    </rdf:RDF>
  </metadata>
  <g
     inkscape:label="Capa 1"
     inkscape:groupmode="layer"
     id="layer1"
     transform="translate(-209.4213,-398.04163)">
    <circle
       style="fill:#ffd05b"
       cx="341.12509"
       cy="529.74542"
       r="131.7038"
       id="circle3-1" />
    <path
       inkscape:connector-curvature="0"
       style="fill:#ffffff"
       d="m 399.74369,602.94933 -117.6,0 c -8.4,0 -14.8,-6.8 -14.8,-14.8 l 0,-117.6 c 0,-8.4 6.8,-14.8 14.8,-14.8 l 117.6,0 c 8.4,0 14.8,6.8 14.8,14.8 l 0,117.6 c 0,8 -6.8,14.8 -14.8,14.8 z"
       id="path5-4" />
    <rect
       x="282.9437"
       y="471.3493"
       style="fill:#84dbff"
       width="115.6"
       height="115.6"
       id="rect7-2" />
    <path
       inkscape:connector-curvature="0"
       id="path25-7"
       d="m 310.94369,545.74933 17.2,-17.2 -16.8,-16.8 11.6,-11.6 16.8,16.8 17.2,-17.2 13.2,13.2 -17.2,17.2 17.2,16.4 -12,12 -16.8,-16.8 -17.2,17.2 -13.2,-13.2 z"
       style="fill:#ffffff" />
  </g>
</svg>
