<?xml version="1.0" encoding="UTF-8" standalone="no"?>
<!-- Created with Inkscape (http://www.inkscape.org/) -->

<svg
   xmlns:dc="http://purl.org/dc/elements/1.1/"
   xmlns:cc="http://creativecommons.org/ns#"
   xmlns:rdf="http://www.w3.org/1999/02/22-rdf-syntax-ns#"
   xmlns:svg="http://www.w3.org/2000/svg"
   xmlns="http://www.w3.org/2000/svg"
   xmlns:sodipodi="http://sodipodi.sourceforge.net/DTD/sodipodi-0.dtd"
   xmlns:inkscape="http://www.inkscape.org/namespaces/inkscape"
   width="74.339478mm"
   height="74.339478mm"
   viewBox="0 0 263.4076 263.4076"
   id="svg4204"
   version="1.1"
   inkscape:version="0.91 r13725"
   sodipodi:docname="circle4.svg">
  <defs
     id="defs4206" />
  <sodipodi:namedview
     id="base"
     pagecolor="#ffffff"
     bordercolor="#666666"
     borderopacity="1.0"
     inkscape:pageopacity="0.0"
     inkscape:pageshadow="2"
     inkscape:zoom="0.49497475"
     inkscape:cx="80.568649"
     inkscape:cy="162.30429"
     inkscape:document-units="px"
     inkscape:current-layer="layer1"
     showgrid="false"
     fit-margin-top="0"
     fit-margin-left="0"
     fit-margin-right="0"
     fit-margin-bottom="0"
     inkscape:window-width="1280"
     inkscape:window-height="962"
     inkscape:window-x="-8"
     inkscape:window-y="-8"
     inkscape:window-maximized="1" />
  <metadata
     id="metadata4209">
    <rdf:RDF>
      <cc:Work
         rdf:about="">
        <dc:format>image/svg+xml</dc:format>
        <dc:type
           rdf:resource="http://purl.org/dc/dcmitype/StillImage" />
        <dc:title></dc:title>
      </cc:Work>
    </rdf:RDF>
  </metadata>
  <g
     inkscape:label="Capa 1"
     inkscape:groupmode="layer"
     id="layer1"
     transform="translate(-243.38251,-495.40027)">
    <circle
       style="fill:#ffd05b"
       cx="375.0863"
       cy="627.10406"
       r="131.7038"
       id="circle3-1-0-8" />
    <path
       inkscape:connector-curvature="0"
       style="fill:#ffffff"
       d="m 434.09258,701.1187 -117.6,0 c -8.4,0 -14.8,-6.8 -14.8,-14.8 l 0,-118.00001 c 0,-8.4 6.8,-14.8 14.8,-14.8 l 117.6,0 c 8.4,0 14.8,6.8 14.8,14.8 l 0,117.60001 c 0.4,8.4 -6.4,15.2 -14.8,15.2 z"
       id="path17-8" />
    <rect
       x="317.69254"
       y="569.51868"
       style="fill:#324a5e"
       width="115.6"
       height="115.6"
       id="rect19-8" />
    <path
       inkscape:connector-curvature="0"
       id="path27-1"
       d="m 342.49258,601.91869 66,0 0,16.8 -66,0 0,-16.8 z m 0,34 66,0 0,16.8 -66,0 0,-16.8 z"
       style="fill:#ffffff" />
  </g>
</svg>
