<?xml version="1.0" encoding="UTF-8" standalone="no"?>
<!-- Created with Inkscape (http://www.inkscape.org/) -->

<svg
   xmlns:dc="http://purl.org/dc/elements/1.1/"
   xmlns:cc="http://creativecommons.org/ns#"
   xmlns:rdf="http://www.w3.org/1999/02/22-rdf-syntax-ns#"
   xmlns:svg="http://www.w3.org/2000/svg"
   xmlns="http://www.w3.org/2000/svg"
   xmlns:sodipodi="http://sodipodi.sourceforge.net/DTD/sodipodi-0.dtd"
   xmlns:inkscape="http://www.inkscape.org/namespaces/inkscape"
   width="74.339478mm"
   height="74.339478mm"
   viewBox="0 0 263.4076 263.4076"
   id="svg4204"
   version="1.1"
   inkscape:version="0.91 r13725"
   sodipodi:docname="circle1.svg">
  <defs
     id="defs4206" />
  <sodipodi:namedview
     id="base"
     pagecolor="#ffffff"
     bordercolor="#666666"
     borderopacity="1.0"
     inkscape:pageopacity="0.0"
     inkscape:pageshadow="2"
     inkscape:zoom="0.49497475"
     inkscape:cx="150.12742"
     inkscape:cy="66.197986"
     inkscape:document-units="px"
     inkscape:current-layer="layer1"
     showgrid="false"
     fit-margin-top="0"
     fit-margin-left="0"
     fit-margin-right="0"
     fit-margin-bottom="0"
     inkscape:window-width="1280"
     inkscape:window-height="962"
     inkscape:window-x="-8"
     inkscape:window-y="-8"
     inkscape:window-maximized="1" />
  <metadata
     id="metadata4209">
    <rdf:RDF>
      <cc:Work
         rdf:about="">
        <dc:format>image/svg+xml</dc:format>
        <dc:type
           rdf:resource="http://purl.org/dc/dcmitype/StillImage" />
        <dc:title></dc:title>
      </cc:Work>
    </rdf:RDF>
  </metadata>
  <g
     inkscape:label="Capa 1"
     inkscape:groupmode="layer"
     id="layer1"
     transform="translate(-187.58191,-383.5155)">
    <circle
       style="fill:#ffd05b"
       cx="319.28571"
       cy="515.2193"
       r="131.7038"
       id="circle3-1-7" />
    <path
       inkscape:connector-curvature="0"
       style="fill:#ffffff"
       d="m 380.72127,590.10727 -117.6,0 c -8.4,0 -14.8,-6.8 -14.8,-14.8 l 0,-117.6 c 0,-8.4 6.8,-14.8 14.8,-14.8 l 117.6,0 c 8.4,0 14.8,6.8 14.8,14.8 l 0,117.6 c 0.4,8 -6.4,14.8 -14.8,14.8 z"
       id="path9-8" />
    <rect
       x="264.32123"
       y="458.50726"
       style="fill:#ff7058"
       width="115.6"
       height="115.6"
       id="rect11-9" />
    <path
       inkscape:connector-curvature="0"
       id="path23-2"
       d="m 312.72127,548.90727 0,-24.4 -23.6,0 0,-16.8 23.6,0 0,-24.4 18.8,0 0,24.4 23.6,0 0,16.8 -23.6,0 0,24.4 -18.8,0 z"
       style="fill:#ffffff" />
  </g>
</svg>
