<?xml version="1.0" encoding="UTF-8" standalone="no"?>
<svg
   xmlns:dc="http://purl.org/dc/elements/1.1/"
   xmlns:cc="http://creativecommons.org/ns#"
   xmlns:rdf="http://www.w3.org/1999/02/22-rdf-syntax-ns#"
   xmlns:svg="http://www.w3.org/2000/svg"
   xmlns="http://www.w3.org/2000/svg"
   xmlns:sodipodi="http://sodipodi.sourceforge.net/DTD/sodipodi-0.dtd"
   xmlns:inkscape="http://www.inkscape.org/namespaces/inkscape"
   version="1.1"
   width="24"
   height="24"
   viewBox="0 0 24 24"
   id="svg2"
   inkscape:version="0.48.5 r10040"
   sodipodi:docname="comment-question-outline.svg">
  <metadata
     id="metadata10">
    <rdf:RDF>
      <cc:Work
         rdf:about="">
        <dc:format>image/svg+xml</dc:format>
        <dc:type
           rdf:resource="http://purl.org/dc/dcmitype/StillImage" />
      </cc:Work>
    </rdf:RDF>
  </metadata>
  <defs
     id="defs8" />
  <sodipodi:namedview
     pagecolor="#ffffff"
     bordercolor="#666666"
     borderopacity="1"
     objecttolerance="10"
     gridtolerance="10"
     guidetolerance="10"
     inkscape:pageopacity="0"
     inkscape:pageshadow="2"
     inkscape:window-width="1920"
     inkscape:window-height="1018"
     id="namedview6"
     showgrid="false"
     inkscape:zoom="16.766602"
     inkscape:cx="3.772678"
     inkscape:cy="18.413587"
     inkscape:window-x="-8"
     inkscape:window-y="-8"
     inkscape:window-maximized="1"
     inkscape:current-layer="svg2" />
  <path
     d="m 2.9562584,2.1192848 c -1.1877266,0 -2.26839072,1.2120775 -2.26839072,2.5442366 l 0,15.2654206 c 0,1.33216 1.08066412,2.544237 2.26839072,2.544237 l 4.5367814,0 c 7.0751582,-0.03629 -1.2746563,-0.01763 6.6917522,0 l 6.918591,0 c 1.187727,0 2.268391,-1.212077 2.268391,-2.544237 l 0,-15.2654206 c 0,-1.4120512 -1.020776,-2.5442366 -2.268391,-2.5442366 l -18.1471246,0 m 0,2.5442366 18.1471246,0 0,15.2654206 -7.848632,0 -3.4992997,-0.0049 0.00601,0.0049 -6.805172,0 0,-15.2654206 M 12.245349,6.571699 c -1.009433,0 -1.814713,0.2289813 -2.4271779,0.6869439 -0.6238072,0.4579626 -0.9413821,1.2212336 -0.8846724,2.0989952 -10.2758097,0 -3.0623272,0 2.2343653,0 0,-0.3561931 0.11342,-0.6233379 0.29489,-0.8014345 0.226839,-0.1780966 0.476363,-0.2671449 0.782595,-0.2671449 0.3516,0 0.657834,0.1017699 0.861989,0.3307508 0.204154,0.2162601 0.306232,0.4961262 0.306232,0.877762 0,0.3561927 -0.09073,0.6742225 -0.249522,0.9413675 -0.192814,0.279866 -0.430995,0.508847 -0.725885,0.686944 -0.589782,0.407077 -0.975409,0.763271 -1.213589,1.068579 -0.215497,0.305309 -0.328917,0.73783 -0.328917,1.373888 l 2.268391,0 c 0,-0.356192 0.05671,-0.636058 0.158787,-0.865041 0.102077,-0.216258 0.294891,-0.407077 0.589781,-0.597894 0.521731,-0.267146 0.952724,-0.623339 1.281641,-1.081302 0.328916,-0.470683 0.499046,-0.966809 0.499046,-1.5265415 0,-0.8904832 -0.306233,-1.6028695 -0.918698,-2.1371592 C 14.162108,6.8388438 13.311461,6.571699 12.245318,6.571699 m -1.349692,8.26877 0,2.544237 2.26839,0 0,-2.544237 z"
     id="path4"
     inkscape:connector-curvature="0"
     sodipodi:nodetypes="csssccssssccccccccccccccscsccccccccsccccccc" />
</svg>
