<?xml version="1.0" encoding="UTF-8" standalone="no"?>
<!-- Generator: Adobe Illustrator 19.0.0, SVG Export Plug-In . SVG Version: 6.00 Build 0)  -->

<svg
   xmlns:dc="http://purl.org/dc/elements/1.1/"
   xmlns:cc="http://creativecommons.org/ns#"
   xmlns:rdf="http://www.w3.org/1999/02/22-rdf-syntax-ns#"
   xmlns:svg="http://www.w3.org/2000/svg"
   xmlns="http://www.w3.org/2000/svg"
   xmlns:sodipodi="http://sodipodi.sourceforge.net/DTD/sodipodi-0.dtd"
   xmlns:inkscape="http://www.inkscape.org/namespaces/inkscape"
   version="1.1"
   id="Layer_1"
   x="0px"
   y="0px"
   viewBox="0 0 512 512"
   style="enable-background:new 0 0 512 512;"
   xml:space="preserve"
   inkscape:version="0.91 r13725"
   sodipodi:docname="diploma.svg"><metadata
     id="metadata69"><rdf:RDF><cc:Work
         rdf:about=""><dc:format>image/svg+xml</dc:format><dc:type
           rdf:resource="http://purl.org/dc/dcmitype/StillImage" /></cc:Work></rdf:RDF></metadata><defs
     id="defs67" /><sodipodi:namedview
     pagecolor="#ffffff"
     bordercolor="#666666"
     borderopacity="1"
     objecttolerance="10"
     gridtolerance="10"
     guidetolerance="10"
     inkscape:pageopacity="0"
     inkscape:pageshadow="2"
     inkscape:window-width="760"
     inkscape:window-height="480"
     id="namedview65"
     showgrid="false"
     inkscape:zoom="0.4609375"
     inkscape:cx="256"
     inkscape:cy="256"
     inkscape:window-x="269"
     inkscape:window-y="211"
     inkscape:window-maximized="0"
     inkscape:current-layer="Layer_1" /><path
     inkscape:connector-curvature="0"
     id="path5"
     d="m 0,30.897 0,388.413 370.759,0 0,-34.842 c 10.646,5.305 22.607,8.36 35.31,8.36 12.703,0 24.664,-3.054 35.31,-8.36 l 0,34.842 70.621,0 0,-388.413 -512,0 z"
     style="fill:#724530" /><path
     inkscape:connector-curvature="0"
     id="path7"
     d="m 485.517,313.379 c 0,-43.882 -35.566,-79.448 -79.448,-79.448 -43.882,0 -79.448,35.566 -79.448,79.448 0,43.882 35.566,79.448 79.448,79.448 43.882,0 79.448,-35.566 79.448,-79.448"
     style="fill:#d3b434" /><path
     style="fill:#f8e7a1"
     d="m 406.069,366.345 c -4.882,0 -8.828,-3.946 -8.828,-8.828 0,-4.882 3.946,-8.828 8.828,-8.828 19.474,0 35.31,-15.837 35.31,-35.31 0,-4.882 3.946,-8.828 8.828,-8.828 4.882,0 8.828,3.946 8.828,8.828 -0.001,29.211 -23.756,52.966 -52.966,52.966"
     id="path11"
     inkscape:connector-curvature="0" /><path
     style="fill:#f8e7a1"
     d="m 361.931,322.207 c -4.882,0 -8.828,-3.946 -8.828,-8.828 0,-29.21 23.755,-52.966 52.966,-52.966 4.882,0 8.828,3.946 8.828,8.828 0,4.882 -3.946,8.828 -8.828,8.828 -19.474,0 -35.31,15.837 -35.31,35.31 0,4.882 -3.946,8.828 -8.828,8.828"
     id="path13"
     inkscape:connector-curvature="0" /><path
     inkscape:connector-curvature="0"
     id="path15"
     d="m 326.621,313.379 c 0,-43.882 35.566,-79.448 79.448,-79.448 30.791,0 57.432,17.549 70.621,43.158 l 0,-175.572 c -19.5,0 -35.31,-15.81 -35.31,-35.31 l -370.759,0 c 0,19.5 -15.81,35.31 -35.31,35.31 l 0,247.173 c 19.5,0 35.31,15.81 35.31,35.31 l 299.158,0 C 344.17,370.812 326.621,344.17 326.621,313.379"
     style="fill:#ece8d8" /><path
     inkscape:connector-curvature="0"
     id="path17"
     d="m 406.069,392.828 c -12.703,0 -24.664,-3.054 -35.31,-8.36 l 0,96.636 35.31,-35.31 35.31,35.31 0,-96.636 c -10.646,5.305 -22.607,8.36 -35.31,8.36"
     style="fill:#f0ce49" /><g
     id="g35" /><g
     id="g37" /><g
     id="g39" /><g
     id="g41" /><g
     id="g43" /><g
     id="g45" /><g
     id="g47" /><g
     id="g49" /><g
     id="g51" /><g
     id="g53" /><g
     id="g55" /><g
     id="g57" /><g
     id="g59" /><g
     id="g61" /><g
     id="g63" /></svg>