<?xml version="1.0" encoding="UTF-8" standalone="no"?>
<!-- Generator: Adobe Illustrator 19.0.0, SVG Export Plug-In . SVG Version: 6.00 Build 0)  -->

<svg
   xmlns:dc="http://purl.org/dc/elements/1.1/"
   xmlns:cc="http://creativecommons.org/ns#"
   xmlns:rdf="http://www.w3.org/1999/02/22-rdf-syntax-ns#"
   xmlns:svg="http://www.w3.org/2000/svg"
   xmlns="http://www.w3.org/2000/svg"
   xmlns:sodipodi="http://sodipodi.sourceforge.net/DTD/sodipodi-0.dtd"
   xmlns:inkscape="http://www.inkscape.org/namespaces/inkscape"
   version="1.1"
   id="Layer_1"
   x="0px"
   y="0px"
   viewBox="0 0 284.22923 325.24531"
   xml:space="preserve"
   width="22.968096"
   height="26.282537"
   inkscape:version="0.48.5 r10040"
   sodipodi:docname="horse-rotate.svg"><metadata
   id="metadata47"><rdf:RDF><cc:Work
       rdf:about=""><dc:format>image/svg+xml</dc:format><dc:type
         rdf:resource="http://purl.org/dc/dcmitype/StillImage" /></cc:Work></rdf:RDF></metadata><defs
   id="defs45">
		
	</defs><sodipodi:namedview
   pagecolor="#ffffff"
   bordercolor="#666666"
   borderopacity="1"
   objecttolerance="10"
   gridtolerance="10"
   guidetolerance="10"
   inkscape:pageopacity="0"
   inkscape:pageshadow="2"
   inkscape:window-width="1920"
   inkscape:window-height="1018"
   id="namedview43"
   showgrid="false"
   inkscape:zoom="14.294183"
   inkscape:cx="-9.681033"
   inkscape:cy="3.9913449"
   inkscape:window-x="-8"
   inkscape:window-y="-8"
   inkscape:window-maximized="1"
   inkscape:current-layer="g7"
   fit-margin-top="0"
   fit-margin-left="0"
   fit-margin-right="0"
   fit-margin-bottom="0" />
<g
   id="g3"
   transform="matrix(0.70710678,-0.70710678,0.70710678,0.70710678,-90.614395,147.66472)">
	<g
   id="g7">
			<path
   style="fill:#9c27b0;fill-opacity:1"
   inkscape:connector-curvature="0"
   id="path9"
   d="m 226.983,260.96 c -1.498,-4.201 -5.476,-7.007 -9.936,-7.007 H 57.231 c -5.099,0 -9.468,3.648 -10.378,8.666 l -4.773,26.333 c -0.218,1.204 -0.173,2.458 0.247,3.607 1.005,2.749 3.556,4.44 6.306,4.44 h 181.553 c 1.363,0 2.726,-0.345 3.854,-1.109 2.648,-1.794 3.598,-5.022 2.599,-7.826 l -9.656,-27.104 z" />
			<path
   style="fill:#9c27b0;fill-opacity:1"
   inkscape:connector-curvature="0"
   id="path11"
   d="M 253.923,113.07 202.42,35.815 212.334,9.011 c 0.873,-2.361 0.347,-5.013 -1.362,-6.861 -1.71,-1.851 -4.314,-2.584 -6.733,-1.896 l -48.56,13.733 c -4.755,-0.085 -22.575,0.281 -42.344,9.337 -20.892,9.57 -47.981,30.99 -58.39,78.68 -14.367,65.826 -0.383,116.08 8.295,138.569 h 137.528 l 12.276,-12.276 c 2.226,-2.227 2.598,-5.703 0.895,-8.351 -11.321,-17.596 -38.038,-61.909 -48.365,-89.48 3.783,1.293 8.071,2.127 12.604,1.89 6.445,-0.337 12.327,-2.696 17.551,-7.028 l 18.855,12.571 c 5.825,3.884 13.047,5.081 19.815,3.284 6.768,-1.797 12.445,-6.42 15.577,-12.683 l 4.365,-8.729 c 1.074,-2.146 0.914,-4.704 -0.418,-6.701 z M 181.616,70.076 h -9.094 c -3.695,0 -6.689,-2.995 -6.689,-6.689 0,-3.695 2.995,-6.689 6.689,-6.689 h 9.094 c 3.695,0 6.689,2.995 6.689,6.689 0,3.695 -2.994,6.689 -6.689,6.689 z" />
		</g>
</g>
<g
   id="g13"
   transform="translate(-29.103967,-0.83467383)">
</g>
<g
   id="g15"
   transform="translate(-29.103967,-0.83467383)">
</g>
<g
   id="g17"
   transform="translate(-29.103967,-0.83467383)">
</g>
<g
   id="g19"
   transform="translate(-29.103967,-0.83467383)">
</g>
<g
   id="g21"
   transform="translate(-29.103967,-0.83467383)">
</g>
<g
   id="g23"
   transform="translate(-29.103967,-0.83467383)">
</g>
<g
   id="g25"
   transform="translate(-29.103967,-0.83467383)">
</g>
<g
   id="g27"
   transform="translate(-29.103967,-0.83467383)">
</g>
<g
   id="g29"
   transform="translate(-29.103967,-0.83467383)">
</g>
<g
   id="g31"
   transform="translate(-29.103967,-0.83467383)">
</g>
<g
   id="g33"
   transform="translate(-29.103967,-0.83467383)">
</g>
<g
   id="g35"
   transform="translate(-29.103967,-0.83467383)">
</g>
<g
   id="g37"
   transform="translate(-29.103967,-0.83467383)">
</g>
<g
   id="g39"
   transform="translate(-29.103967,-0.83467383)">
</g>
<g
   id="g41"
   transform="translate(-29.103967,-0.83467383)">
</g>
</svg>