<?xml version="1.0" encoding="UTF-8" standalone="no"?>
<!-- Created with Inkscape (http://www.inkscape.org/) -->

<svg
   xmlns:dc="http://purl.org/dc/elements/1.1/"
   xmlns:cc="http://creativecommons.org/ns#"
   xmlns:rdf="http://www.w3.org/1999/02/22-rdf-syntax-ns#"
   xmlns:svg="http://www.w3.org/2000/svg"
   xmlns="http://www.w3.org/2000/svg"
   xmlns:sodipodi="http://sodipodi.sourceforge.net/DTD/sodipodi-0.dtd"
   xmlns:inkscape="http://www.inkscape.org/namespaces/inkscape"
   width="395.45737"
   height="395.45737"
   id="svg3044"
   version="1.1"
   inkscape:version="0.48.5 r10040"
   sodipodi:docname="iconApp2.svg"
   inkscape:export-filename="C:\Laboratorio\project-calcu - 20170730\www\img\iconApp2.png"
   inkscape:export-xdpi="89.459999"
   inkscape:export-ydpi="89.459999">
  <defs
     id="defs3046" />
  <sodipodi:namedview
     id="base"
     pagecolor="#ffffff"
     bordercolor="#666666"
     borderopacity="1.0"
     inkscape:pageopacity="0.0"
     inkscape:pageshadow="2"
     inkscape:zoom="0.21099265"
     inkscape:cx="-931.2838"
     inkscape:cy="-134.56831"
     inkscape:document-units="px"
     inkscape:current-layer="layer1"
     showgrid="false"
     fit-margin-top="0"
     fit-margin-left="0"
     fit-margin-right="0"
     fit-margin-bottom="0"
     inkscape:window-width="1920"
     inkscape:window-height="1018"
     inkscape:window-x="-8"
     inkscape:window-y="-8"
     inkscape:window-maximized="1" />
  <metadata
     id="metadata3049">
    <rdf:RDF>
      <cc:Work
         rdf:about="">
        <dc:format>image/svg+xml</dc:format>
        <dc:type
           rdf:resource="http://purl.org/dc/dcmitype/StillImage" />
        <dc:title></dc:title>
      </cc:Work>
    </rdf:RDF>
  </metadata>
  <g
     inkscape:label="Capa 1"
     inkscape:groupmode="layer"
     id="layer1"
     transform="translate(-81.864514,-142.93461)">
    <path
       sodipodi:type="arc"
       style="fill:#4d2b89;fill-opacity:1;fill-rule:nonzero;stroke:none"
       id="path4497"
       sodipodi:cx="237.10686"
       sodipodi:cy="368.69012"
       sodipodi:rx="211.97185"
       sodipodi:ry="211.97185"
       d="m 449.0787,368.69012 c 0,117.06882 -94.90302,211.97185 -211.97184,211.97185 -117.06882,0 -211.97185,-94.90303 -211.97185,-211.97185 0,-117.06881 94.90303,-211.97184 211.97185,-211.97184 117.06882,0 211.97184,94.90303 211.97184,211.97184 z"
       transform="matrix(0.93280632,0,0,0.93280632,58.418418,-3.253192)" />
    <text
       xml:space="preserve"
       style="font-size:260.121521px;font-style:normal;font-variant:normal;font-weight:normal;font-stretch:normal;line-height:125%;letter-spacing:0px;word-spacing:0px;fill:#f44336;fill-opacity:1;stroke:none;font-family:Roboto Black;-inkscape-font-specification:Roboto Black"
       x="273.45728"
       y="314.90646"
       id="text3035"
       sodipodi:linespacing="125%"
       transform="matrix(0.96350118,0.26770409,-0.26770409,0.96350118,0,0)"><tspan
         sodipodi:role="line"
         id="tspan3037"
         x="273.45728"
         y="314.90646">5</tspan></text>
    <g
       id="g4054"
       transform="matrix(0.29231332,-0.18357075,0.18357075,0.29231332,144.34928,302.66186)"
       style="fill:#00bcd4;fill-opacity:1">
      <g
         id="g4008"
         style="fill:#00bcd4;fill-opacity:1">
	<g
   id="g4010"
   style="fill:#00bcd4;fill-opacity:1">
		<g
   id="g4012"
   style="fill:#00bcd4;fill-opacity:1">
			<path
   id="path4014"
   d="m 226.983,260.96 c -1.498,-4.201 -5.476,-7.007 -9.936,-7.007 H 57.231 c -5.099,0 -9.468,3.648 -10.378,8.666 l -4.773,26.333 c -0.218,1.204 -0.173,2.458 0.247,3.607 1.005,2.749 3.556,4.44 6.306,4.44 h 181.553 c 1.363,0 2.726,-0.345 3.854,-1.109 2.648,-1.794 3.598,-5.022 2.599,-7.826 l -9.656,-27.104 z"
   inkscape:connector-curvature="0"
   style="fill:#00bcd4;fill-opacity:1" />

			<path
   id="path4016"
   d="M 253.923,113.07 202.42,35.815 212.334,9.011 c 0.873,-2.361 0.347,-5.013 -1.362,-6.861 -1.71,-1.851 -4.314,-2.584 -6.733,-1.896 l -48.56,13.733 c -4.755,-0.085 -22.575,0.281 -42.344,9.337 -20.892,9.57 -47.981,30.99 -58.39,78.68 -14.367,65.826 -0.383,116.08 8.295,138.569 h 137.528 l 12.276,-12.276 c 2.226,-2.227 2.598,-5.703 0.895,-8.351 -11.321,-17.596 -38.038,-61.909 -48.365,-89.48 3.783,1.293 8.071,2.127 12.604,1.89 6.445,-0.337 12.327,-2.696 17.551,-7.028 l 18.855,12.571 c 5.825,3.884 13.047,5.081 19.815,3.284 6.768,-1.797 12.445,-6.42 15.577,-12.683 l 4.365,-8.729 c 1.074,-2.146 0.914,-4.704 -0.418,-6.701 z M 181.616,70.076 h -9.094 c -3.695,0 -6.689,-2.995 -6.689,-6.689 0,-3.695 2.995,-6.689 6.689,-6.689 h 9.094 c 3.695,0 6.689,2.995 6.689,6.689 0,3.695 -2.994,6.689 -6.689,6.689 z"
   inkscape:connector-curvature="0"
   style="fill:#00bcd4;fill-opacity:1" />

		</g>

	</g>

</g>
      <g
         id="g4018"
         style="fill:#00bcd4;fill-opacity:1">
</g>
      <g
         id="g4020"
         style="fill:#00bcd4;fill-opacity:1">
</g>
      <g
         id="g4022"
         style="fill:#00bcd4;fill-opacity:1">
</g>
      <g
         id="g4024"
         style="fill:#00bcd4;fill-opacity:1">
</g>
      <g
         id="g4026"
         style="fill:#00bcd4;fill-opacity:1">
</g>
      <g
         id="g4028"
         style="fill:#00bcd4;fill-opacity:1">
</g>
      <g
         id="g4030"
         style="fill:#00bcd4;fill-opacity:1">
</g>
      <g
         id="g4032"
         style="fill:#00bcd4;fill-opacity:1">
</g>
      <g
         id="g4034"
         style="fill:#00bcd4;fill-opacity:1">
</g>
      <g
         id="g4036"
         style="fill:#00bcd4;fill-opacity:1">
</g>
      <g
         id="g4038"
         style="fill:#00bcd4;fill-opacity:1">
</g>
      <g
         id="g4040"
         style="fill:#00bcd4;fill-opacity:1">
</g>
      <g
         id="g4042"
         style="fill:#00bcd4;fill-opacity:1">
</g>
      <g
         id="g4044"
         style="fill:#00bcd4;fill-opacity:1">
</g>
      <g
         id="g4046"
         style="fill:#00bcd4;fill-opacity:1">
</g>
    </g>
    <path
       id="path4488"
       d="m 398.22655,272.22287 -3.21732,-0.48018 -6.89425,-1.02893 c -4.13654,-0.61735 -9.87827,3.22426 -10.56422,7.82043 l -36.76932,-5.48765 c 0.68595,-4.59615 -3.68387,-9.94687 -7.82042,-10.56422 l -6.89425,-1.02894 -3.21731,-0.48016 -8.2731,-1.23472 -6.17358,41.36547 c -0.68595,4.59617 3.22426,9.87828 7.82042,10.56424 l 10.11156,1.5091 c 0.46656,9.4667 5.27545,18.17193 19.31777,21.67724 l -1.4405,9.65194 c -10.24876,-0.58988 -14.68023,3.91715 -15.57197,9.89216 l -0.20579,1.37885 36.76931,5.48763 0.20579,-1.37885 c 0.89174,-5.97501 -2.03064,-11.57956 -12.00502,-14.00788 l 1.44051,-9.65195 c 14.45389,0.74761 21.59502,-6.17413 24.80541,-15.09207 l 10.11155,1.50909 c 4.59617,0.68595 9.87828,-3.22425 10.56424,-7.82042 l 6.17359,-41.36547 -8.2731,-1.23471 m -80.63145,30.25301 4.80168,-32.17315 9.19233,1.37191 -1.3719,9.19233 -3.42977,22.98082 c -4.13656,-0.61736 -7.81349,-1.16612 -9.19234,-1.37191 m 73.53862,10.97526 c -1.37885,-0.20579 -5.05578,-0.75454 -9.19232,-1.37191 l 3.42977,-22.98081 1.37191,-9.19233 9.19233,1.37191 -4.80169,32.17314 z"
       inkscape:connector-curvature="0"
       style="fill:#ffd607;fill-opacity:1" />
    <rect
       style="fill:#ffd607;fill-opacity:1;fill-rule:nonzero;stroke:none"
       id="rect3052"
       width="102.21567"
       height="123.16151"
       x="174.26935"
       y="341.87946" />
    <rect
       style="fill:#ffba07;fill-opacity:1;fill-rule:nonzero;stroke:none"
       id="rect3052-1"
       width="102.21567"
       height="123.16151"
       x="276.48502"
       y="341.89374" />
    <path
       style="fill:#e3e3e3;fill-opacity:1;fill-rule:nonzero;stroke:none"
       d="m 274.39536,346.27804 c -1.40571,2.6017 -5.81724,10.76589 -9.80345,18.14262 l -7.24759,13.41224 -51.14134,0.39216 c -28.12773,0.21571 -51.19757,0.32872 -51.2663,0.25115 -0.0688,-0.0776 4.32234,-8.34828 9.75792,-18.37936 l 9.88288,-18.23834 51.18685,-0.15543 51.18685,-0.15544 -2.55582,4.7304 0,0 z"
       id="path3927-2"
       inkscape:connector-curvature="0" />
    <path
       style="fill:#f0ab00;fill-opacity:1;stroke:none"
       d="m 276.10992,342.26226 35.78211,122.18644 66.34594,1.04729 -0.0524,-123.16151 z"
       id="path3969-5"
       inkscape:connector-curvature="0"
       sodipodi:nodetypes="ccccc" />
    <path
       style="fill:#cccccc;fill-opacity:1;fill-rule:nonzero;stroke:none"
       d="m 395.64863,373.5991 c -1.40571,-2.6017 -5.81724,-10.76589 -9.80345,-18.14262 l -7.24759,-13.41224 -51.14134,-0.39216 c -28.12773,-0.21571 -51.19757,-0.32872 -51.2663,-0.25115 -0.0688,0.0776 4.32234,8.34828 9.75792,18.37936 l 9.88288,18.23834 51.18685,0.15543 51.18685,0.15544 -2.55582,-4.7304 0,0 z"
       id="path3927"
       inkscape:connector-curvature="0" />
    <g
       id="g17"
       transform="matrix(-0.60220095,0.79834454,-0.79834454,-0.60220095,332.05848,277.86588)">
</g>
    <g
       id="g19"
       transform="matrix(-0.60220095,0.79834454,-0.79834454,-0.60220095,332.05848,277.86588)">
</g>
    <g
       id="g21"
       transform="matrix(-0.60220095,0.79834454,-0.79834454,-0.60220095,332.05848,277.86588)">
</g>
    <g
       id="g23"
       transform="matrix(-0.60220095,0.79834454,-0.79834454,-0.60220095,332.05848,277.86588)">
</g>
    <g
       id="g25"
       transform="matrix(-0.60220095,0.79834454,-0.79834454,-0.60220095,332.05848,277.86588)">
</g>
    <g
       id="g27"
       transform="matrix(-0.60220095,0.79834454,-0.79834454,-0.60220095,332.05848,277.86588)">
</g>
    <g
       id="g29"
       transform="matrix(-0.60220095,0.79834454,-0.79834454,-0.60220095,332.05848,277.86588)">
</g>
    <g
       id="g31"
       transform="matrix(-0.60220095,0.79834454,-0.79834454,-0.60220095,332.05848,277.86588)">
</g>
    <g
       id="g33"
       transform="matrix(-0.60220095,0.79834454,-0.79834454,-0.60220095,332.05848,277.86588)">
</g>
    <g
       id="g35"
       transform="matrix(-0.60220095,0.79834454,-0.79834454,-0.60220095,332.05848,277.86588)">
</g>
    <g
       id="g37"
       transform="matrix(-0.60220095,0.79834454,-0.79834454,-0.60220095,332.05848,277.86588)">
</g>
    <g
       id="g39"
       transform="matrix(-0.60220095,0.79834454,-0.79834454,-0.60220095,332.05848,277.86588)">
</g>
    <g
       id="g41"
       transform="matrix(-0.60220095,0.79834454,-0.79834454,-0.60220095,332.05848,277.86588)">
</g>
    <g
       id="g43"
       transform="matrix(-0.60220095,0.79834454,-0.79834454,-0.60220095,332.05848,277.86588)">
</g>
    <g
       id="g45"
       transform="matrix(-0.60220095,0.79834454,-0.79834454,-0.60220095,332.05848,277.86588)">
</g>
    <text
       xml:space="preserve"
       style="font-size:40px;font-style:normal;font-variant:normal;font-weight:normal;font-stretch:normal;line-height:125%;letter-spacing:0px;word-spacing:0px;fill:#000000;fill-opacity:1;stroke:none;font-family:Roboto Black;-inkscape-font-specification:Roboto Black"
       x="377.01724"
       y="-270.28552"
       id="text3039"
       sodipodi:linespacing="125%"
       transform="matrix(-0.60220095,0.79834454,-0.79834454,-0.60220095,0,0)"><tspan
         sodipodi:role="line"
         id="tspan3041"
         x="377.01724"
         y="-270.28552" /></text>
    <text
       xml:space="preserve"
       style="font-size:40px;font-style:normal;font-variant:normal;font-weight:normal;font-stretch:normal;line-height:125%;letter-spacing:0px;word-spacing:0px;fill:#000000;fill-opacity:1;stroke:none;font-family:Roboto Black;-inkscape-font-specification:Roboto Black"
       x="364.77069"
       y="-89.036301"
       id="text3043"
       sodipodi:linespacing="125%"
       transform="matrix(-0.60220095,0.79834454,-0.79834454,-0.60220095,0,0)"><tspan
         sodipodi:role="line"
         id="tspan3045"
         x="364.77069"
         y="-89.036301" /></text>
    <flowRoot
       xml:space="preserve"
       id="flowRoot3906"
       style="font-size:40px;font-style:normal;font-variant:normal;font-weight:normal;font-stretch:normal;line-height:125%;letter-spacing:0px;word-spacing:0px;fill:#000000;fill-opacity:1;stroke:none;font-family:Roboto Black;-inkscape-font-specification:Roboto Black"
       transform="matrix(-0.60220095,0.79834454,-0.79834454,-0.60220095,332.05848,277.86588)"><flowRegion
         id="flowRegion3908"><rect
           id="rect3910"
           width="786.22968"
           height="607.42981"
           x="-144.50951"
           y="-8.0846481" /></flowRegion><flowPara
         id="flowPara3912" /></flowRoot>    <flowRoot
       xml:space="preserve"
       id="flowRoot3914"
       style="font-size:40px;font-style:normal;font-variant:normal;font-weight:normal;font-stretch:normal;line-height:125%;letter-spacing:0px;word-spacing:0px;fill:#000000;fill-opacity:1;stroke:none;font-family:Roboto Black;-inkscape-font-specification:Roboto Black"
       transform="matrix(-0.60220095,0.79834454,-0.79834454,-0.60220095,332.05848,277.86588)"><flowRegion
         id="flowRegion3916"><rect
           id="rect3918"
           width="758.06256"
           height="660.09003"
           x="-197.16975"
           y="9.0605478" /></flowRegion><flowPara
         id="flowPara3920" /></flowRoot>  </g>
</svg>
