<?xml version="1.0" encoding="UTF-8" standalone="no"?>
<!-- Created with Inkscape (http://www.inkscape.org/) -->

<svg
   xmlns:dc="http://purl.org/dc/elements/1.1/"
   xmlns:cc="http://creativecommons.org/ns#"
   xmlns:rdf="http://www.w3.org/1999/02/22-rdf-syntax-ns#"
   xmlns:svg="http://www.w3.org/2000/svg"
   xmlns="http://www.w3.org/2000/svg"
   xmlns:sodipodi="http://sodipodi.sourceforge.net/DTD/sodipodi-0.dtd"
   xmlns:inkscape="http://www.inkscape.org/namespaces/inkscape"
   width="46.843983mm"
   height="71.757713mm"
   viewBox="0 0 165.98261 254.25961"
   id="svg4165"
   version="1.1"
   inkscape:version="0.91 r13725"
   sodipodi:docname="medal.svg">
  <defs
     id="defs4167" />
  <sodipodi:namedview
     id="base"
     pagecolor="#ffffff"
     bordercolor="#666666"
     borderopacity="1.0"
     inkscape:pageopacity="0.0"
     inkscape:pageshadow="2"
     inkscape:zoom="0.35"
     inkscape:cx="-449.15155"
     inkscape:cy="124.27266"
     inkscape:document-units="px"
     inkscape:current-layer="layer1"
     showgrid="false"
     fit-margin-top="1"
     fit-margin-left="1"
     fit-margin-right="1"
     fit-margin-bottom="1"
     inkscape:window-width="1280"
     inkscape:window-height="962"
     inkscape:window-x="-8"
     inkscape:window-y="-8"
     inkscape:window-maximized="1" />
  <metadata
     id="metadata4170">
    <rdf:RDF>
      <cc:Work
         rdf:about="">
        <dc:format>image/svg+xml</dc:format>
        <dc:type
           rdf:resource="http://purl.org/dc/dcmitype/StillImage" />
        <dc:title></dc:title>
      </cc:Work>
    </rdf:RDF>
  </metadata>
  <g
     inkscape:label="Capa 1"
     inkscape:groupmode="layer"
     id="layer1"
     transform="translate(-297.00869,-402.37525)">
    <path
       inkscape:connector-curvature="0"
       id="path7"
       d="m 459.448,485.36656 c 0,-43.882 -35.566,-79.448 -79.448,-79.448 -43.882,0 -79.448,35.566 -79.448,79.448 0,43.882 35.566,79.448 79.448,79.448 43.882,0 79.448,-35.566 79.448,-79.448"
       style="fill:#d3b434" />
    <path
       style="fill:#f8e7a1"
       d="m 380,538.33256 c -4.882,0 -8.828,-3.946 -8.828,-8.828 0,-4.882 3.946,-8.828 8.828,-8.828 19.474,0 35.31,-15.837 35.31,-35.31 0,-4.882 3.946,-8.828 8.828,-8.828 4.882,0 8.828,3.946 8.828,8.828 -0.001,29.211 -23.756,52.966 -52.966,52.966"
       id="path11"
       inkscape:connector-curvature="0" />
    <path
       style="fill:#f8e7a1"
       d="m 335.862,494.19456 c -4.882,0 -8.828,-3.946 -8.828,-8.828 0,-29.21 23.755,-52.966 52.966,-52.966 4.882,0 8.828,3.946 8.828,8.828 0,4.882 -3.946,8.828 -8.828,8.828 -19.474,0 -35.31,15.837 -35.31,35.31 0,4.882 -3.946,8.828 -8.828,8.828"
       id="path13"
       inkscape:connector-curvature="0" />
    <path
       inkscape:connector-curvature="0"
       id="path17"
       d="m 380,564.81556 c -12.703,0 -24.664,-3.054 -35.31,-8.36 l 0,96.636 35.31,-35.31 35.31,35.31 0,-96.636 c -10.646,5.305 -22.607,8.36 -35.31,8.36"
       style="fill:#f0ce49" />
  </g>
</svg>
