<?xml version="1.0" encoding="UTF-8" standalone="no"?>
<svg
   xmlns:dc="http://purl.org/dc/elements/1.1/"
   xmlns:cc="http://creativecommons.org/ns#"
   xmlns:rdf="http://www.w3.org/1999/02/22-rdf-syntax-ns#"
   xmlns:svg="http://www.w3.org/2000/svg"
   xmlns="http://www.w3.org/2000/svg"
   xmlns:sodipodi="http://sodipodi.sourceforge.net/DTD/sodipodi-0.dtd"
   xmlns:inkscape="http://www.inkscape.org/namespaces/inkscape"
   version="1.1"
   width="24"
   height="24"
   viewBox="0 0 24 24"
   id="svg2"
   inkscape:version="0.48.5 r10040"
   sodipodi:docname="share-rotate.svg">
  <metadata
     id="metadata10">
    <rdf:RDF>
      <cc:Work
         rdf:about="">
        <dc:format>image/svg+xml</dc:format>
        <dc:type
           rdf:resource="http://purl.org/dc/dcmitype/StillImage" />
      </cc:Work>
    </rdf:RDF>
  </metadata>
  <defs
     id="defs8" />
  <sodipodi:namedview
     pagecolor="#ffffff"
     bordercolor="#666666"
     borderopacity="1"
     objecttolerance="10"
     gridtolerance="10"
     guidetolerance="10"
     inkscape:pageopacity="0"
     inkscape:pageshadow="2"
     inkscape:window-width="1920"
     inkscape:window-height="1018"
     id="namedview6"
     showgrid="false"
     inkscape:zoom="14.294183"
     inkscape:cx="-5.5586844"
     inkscape:cy="7.1042861"
     inkscape:window-x="-8"
     inkscape:window-y="-8"
     inkscape:window-maximized="1"
     inkscape:current-layer="svg2" />
  <path
     d="m 7.875,17.955 c 0,-0.76 -0.3,-1.44 -0.77,-1.96 l 4.15,-7.13 c 0.23,0.05 0.46,0.09 0.7,0.09 0.24,0 0.47,-0.04 0.7,-0.09 l 4.11,7.05 c -0.5,0.54 -0.81,1.25 -0.81,2.04 a 3,3 0 0 0 3,3 3,3 0 0 0 3,-3 3,3 0 0 0 -3,-3 c -0.24,0 -0.47,0.04 -0.7,0.09 l -4.11,-7.05 c 0.5,-0.54 0.81,-1.25 0.81,-2.04 a 3,3 0 0 0 -3,-3 3,3 0 0 0 -3,3 c 0,0.79 0.31,1.5 0.81,2.04 l -4.15,7.12 c -0.21,-0.05 -0.43,-0.08 -0.66,-0.08 -1.61,0 -2.91,1.31 -2.91,2.92 0,1.61 1.3,2.92 2.91,2.92 a 2.92,2.92 0 0 0 2.92,-2.92 z"
     id="path4"
     inkscape:connector-curvature="0"
     style="fill:#ffc107;fill-opacity:1" />
</svg>
